<svg width="163" height="36" viewBox="0 0 163 36" fill="none" xmlns="http://www.w3.org/2000/svg">
<path d="M0 0.987061V34.7871H8.532V26.9251L10.737 24.8931L17.108 34.7871H27.394L16.659 19.4981L26.19 10.2111H16.308L8.532 18.4041V0.987061H0Z" fill="#E3001F"/>
<path d="M28.9502 7.13806H37.4792V0.987061H28.9502V7.13806ZM28.9502 0.987061V34.7871H37.4792V10.2071H28.9492L28.9502 0.987061Z" fill="#E3001F"/>
<path d="M145.797 34.788H154.328V0.988037H145.797V34.788Z" fill="#E3001F"/>
<path d="M0 0.987061V34.7871H8.532V26.9251L10.737 24.8931L17.108 34.7871H27.394L16.659 19.4981L26.19 10.2111H16.308L8.532 18.4041V0.987061H0Z" fill="#E3001F"/>
<path d="M28.9502 7.13806H37.4792V0.987061H28.9502V7.13806ZM28.9502 0.987061V34.7871H37.4792V10.2071H28.9492L28.9502 0.987061Z" fill="#E3001F"/>
<path d="M57.0984 15.42H51.8304V26.598C51.8304 28.536 53.0304 28.96 54.8904 28.96C55.5904 28.96 56.3444 28.869 57.0984 28.869V34.787C55.5394 34.834 53.9894 35.019 52.4334 35.019C45.1534 35.019 43.3014 33.036 43.3014 26.358V15.42H38.9824V10.211H43.3014V2.78198H51.8304V10.211H57.0984V15.42Z" fill="#E3001F"/>
<path d="M59.4534 17.7869C59.4704 16.4244 59.8579 15.0923 60.5744 13.9333C61.2909 12.7743 62.3093 11.8322 63.5204 11.2079C66.1052 9.9939 68.9414 9.41124 71.7954 9.50789C77.9664 9.50789 83.9354 10.7849 83.9354 17.7439V28.4869C83.9354 30.5709 83.9354 32.8419 84.9424 34.7869H76.3644C76.0948 34.039 75.9267 33.2584 75.8644 32.4659C73.5028 34.5453 70.428 35.6301 67.2844 35.4929C62.3124 35.4929 58.3994 33.1249 58.3994 28.0629C58.3994 20.0629 67.6334 20.6749 73.5514 19.5399C75.0084 19.2579 75.8114 18.7829 75.8114 17.2679C75.8114 15.4199 73.4544 14.7139 71.6964 14.7139C69.3374 14.7139 67.8344 15.7059 67.4304 17.7879L59.4534 17.7869ZM70.4914 30.5199C74.5574 30.5199 75.9154 28.3449 75.7124 23.2779C74.5124 23.9919 72.2964 24.1319 70.4444 24.6029C68.5314 25.0309 66.9284 25.7929 66.9284 27.7329C66.9284 29.7209 68.5864 30.5209 70.4914 30.5209" fill="#E3001F"/>
<path d="M113.239 34.7881H105.111V31.9431H105.011C104.201 33.0821 103.122 34.003 101.87 34.6235C100.618 35.244 99.2312 35.5448 97.8343 35.4991C89.6563 35.4991 86.1953 28.8711 86.1953 21.9571C86.1953 15.5681 89.8033 9.51106 97.1833 9.51106C98.5986 9.4398 100.01 9.70752 101.301 10.2919C102.592 10.8764 103.725 11.7606 104.605 12.8711H104.711V0.987061H113.239V34.7881ZM94.7223 22.2381C94.7223 25.6001 96.0303 29.3441 99.9433 29.3441C104.108 29.3441 105.008 25.6011 105.008 22.4791C105.008 18.9281 103.652 15.6581 99.9433 15.6581C96.0303 15.6581 94.7223 19.1161 94.7223 22.2381Z" fill="#E3001F"/>
<path d="M129.392 9.50684C137.469 9.50684 143.139 15.1388 143.139 22.5218C143.139 29.9048 137.471 35.4948 129.392 35.4948C121.313 35.4948 115.692 29.9068 115.692 22.5218C115.692 15.1368 121.312 9.50684 129.392 9.50684ZM129.392 29.3418C133.354 29.3418 134.61 25.6488 134.61 22.5218C134.61 19.3948 133.356 15.6558 129.392 15.6558C125.428 15.6558 124.223 19.3978 124.223 22.5208C124.223 25.6438 125.431 29.3408 129.394 29.3408" fill="#E3001F"/>
<path d="M145.797 0.987061H154.328V34.7871H145.797V0.987061Z" fill="#E3001F"/>
<path d="M159.961 6.05495C159.595 6.06346 159.232 5.99692 158.893 5.85944C158.554 5.72197 158.247 5.51648 157.991 5.25566C157.734 4.99485 157.534 4.68426 157.403 4.34306C157.271 4.00187 157.211 3.63733 157.226 3.27195C157.215 2.90782 157.277 2.54518 157.41 2.20599C157.543 1.8668 157.744 1.5581 157.999 1.29859C158.255 1.03907 158.561 0.834132 158.898 0.696171C159.235 0.558211 159.597 0.490097 159.961 0.495953C160.324 0.491149 160.685 0.560096 161.02 0.698622C161.356 0.837147 161.661 1.04237 161.915 1.30188C162.169 1.56139 162.368 1.86978 162.5 2.20841C162.631 2.54703 162.693 2.90884 162.681 3.27195C162.693 3.63527 162.631 3.99723 162.499 4.33605C162.368 4.67487 162.169 4.98353 161.915 5.24345C161.66 5.50337 161.356 5.70918 161.021 5.84847C160.685 5.98776 160.324 6.05766 159.961 6.05395V6.05495ZM159.961 0.976953C159.667 0.978971 159.377 1.04089 159.108 1.15892C158.839 1.27695 158.596 1.44861 158.396 1.66341C158.195 1.87822 158.041 2.13165 157.942 2.40822C157.842 2.68479 157.801 2.97869 157.819 3.27195C157.797 3.56599 157.836 3.86136 157.934 4.13955C158.032 4.41775 158.186 4.67278 158.386 4.88868C158.587 5.10459 158.83 5.27672 159.101 5.39429C159.371 5.51186 159.663 5.57234 159.958 5.57195C160.251 5.56951 160.541 5.50703 160.81 5.38836C161.078 5.26968 161.32 5.09732 161.519 4.88188C161.719 4.66644 161.872 4.41247 161.969 4.13561C162.067 3.85874 162.107 3.56483 162.087 3.27195C162.106 2.97924 162.066 2.68563 161.968 2.40908C161.87 2.13254 161.717 1.87886 161.518 1.66358C161.318 1.44829 161.077 1.27592 160.809 1.157C160.541 1.03808 160.251 0.975115 159.958 0.971954L159.961 0.976953ZM159.41 4.85895H158.903V1.78595H160.073C160.812 1.78595 161.193 2.04695 161.193 2.67095C161.2 2.77993 161.185 2.88921 161.148 2.99193C161.11 3.09465 161.052 3.1886 160.977 3.26786C160.902 3.34712 160.812 3.40999 160.711 3.45251C160.61 3.49503 160.502 3.51629 160.393 3.51495L161.252 4.86495H160.687L159.887 3.55095H159.412L159.41 4.85895ZM159.976 3.11195C160.356 3.11195 160.691 3.06895 160.691 2.62695C160.691 2.25795 160.326 2.21095 160.019 2.21095H159.411V3.11095L159.976 3.11195Z" fill="#E3001F"/>
</svg>
